<svg width="200" height="163" viewBox="0 0 200 163" fill="none" xmlns="http://www.w3.org/2000/svg">
<g clip-path="url(#clip0_1514_337)">
<path d="M100.812 0.00582691C97.3459 -0.100226 93.9559 1.03653 91.2542 3.21087C88.5525 5.38522 86.7175 8.45386 86.0799 11.8628C85.4424 15.2717 86.0444 18.7962 87.7777 21.8C89.5109 24.8038 92.2612 27.0889 95.5316 28.2428L62.1156 84.7708L25.1004 57.6098C27.582 55.0898 29.0686 51.7573 29.286 48.2272C29.5034 44.6971 28.4372 41.2075 26.2835 38.402C24.1299 35.5965 21.0341 33.6644 17.5677 32.9622C14.1013 32.2599 10.4979 32.8349 7.42219 34.581C4.34646 36.3271 2.00602 39.1265 0.832351 42.4629C-0.34132 45.7992 -0.268683 49.4475 1.03645 52.7347C2.34159 56.0219 4.79132 58.7262 7.93391 60.3489C11.0765 61.9715 14.6998 62.403 18.1356 61.5638L33.9583 136.819H166.302L182.119 61.5768C184.113 62.0516 186.184 62.0989 188.197 61.7158C190.209 61.3327 192.119 60.5277 193.798 59.3539C195.478 58.1801 196.889 56.664 197.941 54.9053C198.992 53.1467 199.66 51.1854 199.899 49.1504C200.138 47.1154 199.943 45.0528 199.328 43.0984C198.713 41.1439 197.691 39.3419 196.329 37.8108C194.967 36.2797 193.297 35.0543 191.428 34.2151C189.558 33.3759 187.533 32.9419 185.484 32.9418C182.623 32.9421 179.826 33.7875 177.445 35.3717C175.063 36.956 173.203 39.2085 172.097 41.8465C170.991 44.4845 170.689 47.3904 171.228 50.1995C171.768 53.0086 173.126 55.5956 175.131 57.6358L138.159 84.7708L104.823 28.3708C108.085 27.3221 110.873 25.1543 112.692 22.2502C114.512 19.3461 115.247 15.8925 114.767 12.4991C114.288 9.10568 112.625 5.99076 110.073 3.70428C107.52 1.4178 104.241 0.106808 100.816 0.00280567L100.812 0.00582691ZM33.9295 144.692V162.827H166.35V144.692H33.9295Z" fill="#FFCF11"/>
</g>
<defs>
<clipPath id="clip0_1514_337">
<rect width="200" height="162.828" fill="white"/>
</clipPath>
</defs>
</svg>
